{
    "asset" : {
        "generator" : "Khronos glTF Blender I/O v1.8.19",
        "version" : "2.0"
    },
    "scene" : 0,
    "scenes" : [
        {
            "name" : "Scene",
            "nodes" : [
                0
            ]
        }
    ],
    "nodes" : [
        {
            "mesh" : 0,
            "name" : "\u68a7\u6850\u681104"
        }
    ],
    "materials" : [
        {
            "doubleSided" : true,
            "name" : "AM113_016_Quercus_Bark",
            "pbrMetallicRoughness" : {
                "baseColorTexture" : {
                    "index" : 0
                },
                "metallicFactor" : 0,
                "roughnessFactor" : 0.5
            }
        },
        {
            "alphaCutoff" : 0.5,
            "alphaMode" : "MASK",
            "doubleSided" : true,
            "name" : "AM113_016_Quercus",
            "pbrMetallicRoughness" : {
                "baseColorTexture" : {
                    "index" : 1
                },
                "metallicFactor" : 0,
                "roughnessFactor" : 0.7913385629653931
            }
        }
    ],
    "meshes" : [
        {
            "name" : "AM113_016_Quercusgw",
            "primitives" : [
                {
                    "attributes" : {
                        "POSITION" : 0,
                        "NORMAL" : 1,
                        "TEXCOORD_0" : 2
                    },
                    "indices" : 3,
                    "material" : 0
                },
                {
                    "attributes" : {
                        "POSITION" : 4,
                        "NORMAL" : 5,
                        "TEXCOORD_0" : 6
                    },
                    "indices" : 7,
                    "material" : 1
                }
            ]
        }
    ],
    "textures" : [
        {
            "sampler" : 0,
            "source" : 0
        },
        {
            "sampler" : 0,
            "source" : 1
        }
    ],
    "images" : [
        {
            "bufferView" : 4,
            "mimeType" : "image/jpeg",
            "name" : "Image_0"
        },
        {
            "bufferView" : 9,
            "mimeType" : "image/png",
            "name" : "Image_1"
        }
    ],
    "accessors" : [
        {
            "bufferView" : 0,
            "componentType" : 5126,
            "count" : 428,
            "max" : [
                0.6799960136413574,
                5.186213970184326,
                0.3431209921836853
            ],
            "min" : [
                -0.41086798906326294,
                -0.010768000036478043,
                -0.8924639821052551
            ],
            "type" : "VEC3"
        },
        {
            "bufferView" : 1,
            "componentType" : 5126,
            "count" : 428,
            "type" : "VEC3"
        },
        {
            "bufferView" : 2,
            "componentType" : 5126,
            "count" : 428,
            "type" : "VEC2"
        },
        {
            "bufferView" : 3,
            "componentType" : 5123,
            "count" : 2196,
            "type" : "SCALAR"
        },
        {
            "bufferView" : 5,
            "componentType" : 5126,
            "count" : 5114,
            "max" : [
                2.5225439071655273,
                6.605544090270996,
                2.3505799770355225
            ],
            "min" : [
                -2.3106400966644287,
                1.9942610263824463,
                -2.478563070297241
            ],
            "type" : "VEC3"
        },
        {
            "bufferView" : 6,
            "componentType" : 5126,
            "count" : 5114,
            "type" : "VEC3"
        },
        {
            "bufferView" : 7,
            "componentType" : 5126,
            "count" : 5114,
            "type" : "VEC2"
        },
        {
            "bufferView" : 8,
            "componentType" : 5123,
            "count" : 17076,
            "type" : "SCALAR"
        }
    ],
    "bufferViews" : [
        {
            "buffer" : 0,
            "byteLength" : 5136,
            "byteOffset" : 0
        },
        {
            "buffer" : 0,
            "byteLength" : 5136,
            "byteOffset" : 5136
        },
        {
            "buffer" : 0,
            "byteLength" : 3424,
            "byteOffset" : 10272
        },
        {
            "buffer" : 0,
            "byteLength" : 4392,
            "byteOffset" : 13696
        },
        {
            "buffer" : 0,
            "byteLength" : 474531,
            "byteOffset" : 18088
        },
        {
            "buffer" : 0,
            "byteLength" : 61368,
            "byteOffset" : 492620
        },
        {
            "buffer" : 0,
            "byteLength" : 61368,
            "byteOffset" : 553988
        },
        {
            "buffer" : 0,
            "byteLength" : 40912,
            "byteOffset" : 615356
        },
        {
            "buffer" : 0,
            "byteLength" : 34152,
            "byteOffset" : 656268
        },
        {
            "buffer" : 0,
            "byteLength" : 526898,
            "byteOffset" : 690420
        }
    ],
    "samplers" : [
        {
            "magFilter" : 9729,
            "minFilter" : 9987
        }
    ],
    "buffers" : [
        {
            "byteLength" : 1217320,
            "uri" : "data:application/octet-stream;base64,"
        }
    ]
}
